<?xml version='1.0' encoding='utf-8'?>
<!DOCTYPE svg PUBLIC '-//W3C//DTD SVG 1.1//EN' 'http://www.w3.org/Graphics/SVG/1.1/DTD/svg11.dtd'>
<svg width="64" version="1.1" xmlns="http://www.w3.org/2000/svg" height="64" viewBox="0 0 64 64" xmlns:xlink="http://www.w3.org/1999/xlink" enable-background="new 0 0 64 64">
  <g>
    <g fill="#1D1D1B">
      <path d="m63.81,19.912c-0.104-0.246-0.254-0.469-0.438-0.656-0.006-0.005-0.008-0.012-0.014-0.018l-7.157-7.129c-0.814-0.812-2.135-0.812-2.952,0-0.812,0.812-0.812,2.129 0,2.939l3.597,3.581-16.873,.001c-0.555,0-1.083,0.219-1.478,0.609l-22.246,22.165h-14.192c-1.151,0-2.085,0.93-2.085,2.078s0.934,2.08 2.085,2.08h15.055c0.555,0 1.085-0.22 1.477-0.609l22.25-22.164 16.008-.002-3.441,3.428c-0.813,0.812-0.813,2.128 0,2.939 0.409,0.406 0.943,0.609 1.477,0.609 0.535,0 1.067-0.203 1.477-0.609l6.999-6.975c0.195-0.191 0.347-0.422 0.453-0.678 0.105-0.254 0.162-0.523 0.162-0.793-0.002-0.27-0.059-0.54-0.164-0.796z"/>
      <path d="m2.057,22.787h14.192l6.124,6.102c0.406,0.406 0.939,0.609 1.474,0.609 0.533,0 1.069-0.203 1.476-0.609 0.815-0.811 0.815-2.128 0-2.939l-6.734-6.711c-0.392-0.39-0.922-0.608-1.477-0.608h-15.055c-1.151,0-2.085,0.931-2.085,2.079s0.933,2.077 2.085,2.077z"/>
      <path d="m63.81,42.689c-0.106-0.256-0.258-0.486-0.453-0.678l-6.999-6.975c-0.815-0.812-2.137-0.812-2.953,0-0.813,0.812-0.813,2.127 0,2.939l3.441,3.428-16.008-.002-6.04-6.015c-0.815-0.812-2.136-0.812-2.951,0-0.816,0.812-0.816,2.129 0,2.94l6.648,6.623c0.395,0.391 0.923,0.609 1.478,0.609l16.873,.002-3.597,3.579c-0.812,0.812-0.812,2.128 0,2.94 0.408,0.406 0.942,0.608 1.479,0.608 0.53,0 1.067-0.202 1.473-0.608l7.157-7.129c0.006-0.006 0.008-0.013 0.014-0.018 0.184-0.188 0.333-0.41 0.438-0.656 0.105-0.256 0.162-0.525 0.162-0.797 7.10543e-15-0.266-0.057-0.536-0.162-0.79z"/>
    </g>
  </g>
</svg>